<svg xmlns="http://www.w3.org/2000/svg" version="1.0" viewBox="365.46 1220.51 2276.45 636.81"><defs><clipPath id="a"><path d="M627.309 1780.32h77v77.004h-77zm0 0"/></clipPath><clipPath id="b"><path d="M665.809 1780.32c-21.262 0-38.5 17.239-38.5 38.504 0 21.262 17.238 38.5 38.5 38.5 21.265 0 38.5-17.238 38.5-38.5 0-21.265-17.235-38.504-38.5-38.504"/></clipPath><clipPath id="c"><path d="M524.406 1780.32h77.004v77.004h-77.004zm0 0"/></clipPath><clipPath id="d"><path d="M562.91 1780.32c-21.265 0-38.504 17.239-38.504 38.504 0 21.262 17.239 38.5 38.504 38.5 21.262 0 38.5-17.238 38.5-38.5 0-21.265-17.238-38.504-38.5-38.504"/></clipPath><clipPath id="e"><path d="M421.508 1780.32h77v77.004h-77zm0 0"/></clipPath><clipPath id="f"><path d="M460.008 1780.32c-21.266 0-38.5 17.239-38.5 38.504 0 21.262 17.234 38.5 38.5 38.5 21.262 0 38.5-17.238 38.5-38.5 0-21.265-17.238-38.504-38.5-38.504"/></clipPath><clipPath id="g"><path d="M432 1558h209v211H432zm0 0"/></clipPath><clipPath id="h"><path d="m640.473 1768.57-126.532 88.657-148.476-211.91 126.531-88.657zm0 0"/></clipPath><clipPath id="i"><path d="m640.473 1768.57-126.532 88.657-148.476-211.91 126.531-88.657zm0 0"/></clipPath></defs><path d="M1003.778 1431.068c-8.86 0-13.629 4.77-13.629 13.63v143.097c0 42.25-25.215 72.914-59.285 72.914-27.258 0-43.61-20.442-43.61-55.195v-160.817c0-8.86-4.769-13.629-13.628-13.629h-74.957c-8.86 0-13.63 4.77-13.63 13.63v160.816c0 88.586 41.567 136.964 117.208 136.964 48.379 0 82.45-19.761 104.598-60.644 17.035 33.73 45.652 52.469 85.515 56.555v-293.692c0-8.86-4.77-13.629-13.629-13.629zM1246.364 1731.576c8.859 0 13.629-4.77 13.629-13.629v-367.969c0-70.183-36.118-115.84-102.215-129.468v497.437c0 8.86 4.77 13.63 13.629 13.63zM1486.905 1420.166c-100.851 0-175.125 63.371-175.125 161.496 0 99.488 71.551 160.816 175.125 160.816 74.957 0 134.239-32.707 158.09-100.851 3.407-9.54-2.043-15.672-11.586-15.672h-75.636c-7.496 0-11.582 4.09-14.993 11.586-8.175 18.398-27.937 32.027-57.918 32.027-38.16 0-62.011-27.258-64.734-68.824h219.414c8.86 0 13.63-4.77 13.63-13.629v-12.265c0-99.489-74.954-154.684-166.267-154.684zm-65.418 125.383c5.793-32.707 24.192-55.88 62.012-55.88 36.113 0 59.281 23.173 61.328 55.88zM1905.981 1426.982c-6.816-1.363-14.992-2.726-22.488-2.726-36.113 0-69.844 16.351-91.309 59.965-16.355-31.004-45.656-51.45-86.543-59.965v293.691c0 8.86 4.77 13.63 13.63 13.63h74.956c8.86 0 13.63-4.77 13.63-13.63V1580.3c4.09-41.567 25.21-63.371 62.007-63.371 9.54 0 19.762 1.363 31.348 4.09 9.539 2.726 15.672-1.364 15.672-10.903v-67.46c0-7.497-3.407-13.63-10.903-15.673zM2121.991 1420.166c-100.851 0-175.125 63.371-175.125 161.496 0 99.488 71.551 160.816 175.125 160.816 74.957 0 134.239-32.707 158.09-100.851 3.406-9.54-2.043-15.672-11.586-15.672h-75.637c-7.496 0-11.582 4.09-14.992 11.586-8.175 18.398-27.937 32.027-57.918 32.027-38.16 0-62.011-27.258-64.734-68.824h219.414c8.86 0 13.629-4.77 13.629-13.629v-12.265c0-99.489-74.953-154.684-166.266-154.684zm-65.418 125.383c5.793-32.707 24.192-55.88 62.012-55.88 36.113 0 59.281 23.173 61.328 55.88zM2519.262 1731.576c74.954 0 109.028-28.621 122.653-81.09h-152.637l133.559-203.062c2.043-2.727 2.726-5.453 2.726-7.496 0-5.453-4.09-8.86-11.586-8.86H2346.18c-8.859 0-13.629 4.77-13.629 13.63v50.425c0 8.86 4.77 13.629 13.63 13.629h130.831L2330.51 1715.22c-2.047 2.726-2.727 5.453-2.727 7.496 0 5.453 4.09 8.86 11.582 8.86zM653.192 1482.861c34.07-14.992 55.196-50.426 55.196-91.992 0-78.363-56.559-122.656-157.407-122.656H418.786c-8.86 0-13.629 4.77-13.629 13.629v463.363c65.414-13.629 102.211-64.734 102.211-141.055v-66.097h69.504c38.844 0 60.649 22.488 60.649 55.879 0 34.07-21.125 55.875-67.461 55.875h-62.692c8.86 53.148 43.613 88.582 98.125 88.582 79.043 0 134.238-50.422 134.238-127.422 0-72.914-30.664-113.797-86.539-128.106zm-145.824-26.578V1356.8h43.613c40.204 0 57.239 17.035 57.239 49.062 0 32.707-17.719 50.422-57.239 50.422zm0 0"/><g clip-path="url(#a)"><g clip-path="url(#b)"><path fill="#ffde59" d="M627.309 1780.32h77v77.004h-77zm0 0"/></g></g><g clip-path="url(#c)"><g clip-path="url(#d)"><path fill="#00bf63" d="M524.406 1780.32h77.004v77.004h-77.004zm0 0"/></g></g><g clip-path="url(#e)"><g clip-path="url(#f)"><path fill="#38b6ff" d="M421.508 1780.32h77v77.004h-77zm0 0"/></g></g><g clip-path="url(#g)"><g clip-path="url(#h)"><g clip-path="url(#i)"><path fill="#00bf63" d="M640.34 1768.379s-193.336-6.676-206.348-33.836c-13.012-27.156 55.656-175.961 55.656-175.961s-35.668 138.262-21.054 159.117c9.074 12.95 142.62 48.137 171.746 50.68zm0 0"/></g></g></g></svg>